<svg xmlns="http://www.w3.org/2000/svg" xmlns:xlink="http://www.w3.org/1999/xlink" width="129" zoomAndPan="magnify" viewBox="0 0 96.75 46.499999" height="62" preserveAspectRatio="xMidYMid meet" version="1.0"><defs><g/><clipPath id="237046f5ce"><path d="M 0.390625 6.261719 L 25.621094 6.261719 L 25.621094 31.488281 L 0.390625 31.488281 Z M 0.390625 6.261719 " clip-rule="nonzero"/></clipPath></defs><g clip-path="url(#237046f5ce)"><path fill="#ffffff" d="M 9.285156 15.152344 C 12.882812 11.554688 12.988281 7.113281 12.992188 6.261719 C 12.996094 7.125 13.117188 11.5625 16.71875 15.164062 C 20.316406 18.761719 24.757812 18.882812 25.621094 18.890625 C 24.769531 18.894531 20.324219 19 16.726562 22.59375 C 16.125 23.199219 13.042969 26.402344 13.019531 31.488281 C 13.011719 30.625 12.890625 26.183594 9.292969 22.585938 C 5.695312 18.988281 1.253906 18.867188 0.390625 18.859375 C 1.242188 18.859375 5.6875 18.75 9.285156 15.152344 Z M 9.285156 15.152344 " fill-opacity="1" fill-rule="nonzero"/></g><g fill="#ffffff" fill-opacity="1"><g transform="translate(27.849291, 29.581908)"><g><path d="M 1.4375 0 L 1.4375 -17.78125 L 5.625 -17.78125 L 5.625 0 Z M 1.4375 0 "/></g></g></g><g fill="#ffffff" fill-opacity="1"><g transform="translate(34.90549, 29.581908)"><g><path d="M 3.671875 -13.28125 C 3.054688 -13.28125 2.53125 -13.5 2.09375 -13.9375 C 1.65625 -14.382812 1.4375 -14.921875 1.4375 -15.546875 C 1.4375 -16.160156 1.65625 -16.6875 2.09375 -17.125 C 2.53125 -17.5625 3.054688 -17.78125 3.671875 -17.78125 C 4.304688 -17.78125 4.84375 -17.5625 5.28125 -17.125 C 5.71875 -16.6875 5.9375 -16.160156 5.9375 -15.546875 C 5.9375 -14.921875 5.71875 -14.382812 5.28125 -13.9375 C 4.84375 -13.5 4.304688 -13.28125 3.671875 -13.28125 Z M 1.578125 0 L 1.578125 -11.703125 L 5.765625 -11.671875 L 5.765625 0 Z M 1.578125 0 "/></g></g></g><g fill="#ffffff" fill-opacity="1"><g transform="translate(42.277209, 29.581908)"><g><path d="M 7.34375 0.265625 C 6.75 0.265625 6.296875 0.222656 5.984375 0.140625 C 5.671875 0.0664062 5.347656 -0.0078125 5.015625 -0.09375 C 4.691406 -0.1875 4.210938 -0.257812 3.578125 -0.3125 C 3.085938 -0.351562 2.65625 -0.328125 2.28125 -0.234375 C 1.90625 -0.148438 1.625 -0.0703125 1.4375 0 L 1.4375 -17.78125 L 5.59375 -17.78125 L 5.59375 -11.28125 C 5.800781 -11.488281 6.097656 -11.648438 6.484375 -11.765625 C 6.867188 -11.878906 7.269531 -11.9375 7.6875 -11.9375 C 8.738281 -11.9375 9.6875 -11.675781 10.53125 -11.15625 C 11.375 -10.644531 12.039062 -9.941406 12.53125 -9.046875 C 13.03125 -8.160156 13.28125 -7.160156 13.28125 -6.046875 C 13.28125 -4.753906 13.019531 -3.632812 12.5 -2.6875 C 11.988281 -1.738281 11.28125 -1.007812 10.375 -0.5 C 9.476562 0.0078125 8.46875 0.265625 7.34375 0.265625 Z M 6.9375 -0.0625 C 7.414062 -0.0625 7.800781 -0.34375 8.09375 -0.90625 C 8.394531 -1.46875 8.617188 -2.203125 8.765625 -3.109375 C 8.910156 -4.015625 8.984375 -4.992188 8.984375 -6.046875 C 8.984375 -7.097656 8.921875 -8.035156 8.796875 -8.859375 C 8.671875 -9.679688 8.457031 -10.332031 8.15625 -10.8125 C 7.863281 -11.289062 7.457031 -11.53125 6.9375 -11.53125 C 6.445312 -11.53125 6 -11.28125 5.59375 -10.78125 L 5.59375 -1.78125 C 5.59375 -1.238281 5.722656 -0.816406 5.984375 -0.515625 C 6.242188 -0.210938 6.5625 -0.0625 6.9375 -0.0625 Z M 6.9375 -0.0625 "/></g></g></g><g fill="#ffffff" fill-opacity="1"><g transform="translate(56.274877, 29.581908)"><g><path d="M 8.921875 -11.96875 C 9.492188 -11.96875 10.046875 -11.859375 10.578125 -11.640625 C 11.117188 -11.429688 11.554688 -11.085938 11.890625 -10.609375 C 12.222656 -10.128906 12.390625 -9.5 12.390625 -8.71875 C 12.390625 -8.320312 12.316406 -7.921875 12.171875 -7.515625 C 12.035156 -7.109375 11.796875 -6.769531 11.453125 -6.5 C 11.117188 -6.238281 10.664062 -6.109375 10.09375 -6.109375 C 9.519531 -6.109375 9.070312 -6.300781 8.75 -6.6875 C 8.425781 -7.070312 8.242188 -7.441406 8.203125 -7.796875 C 8.203125 -7.796875 8.328125 -7.878906 8.578125 -8.046875 C 8.828125 -8.210938 9.070312 -8.453125 9.3125 -8.765625 C 9.550781 -9.078125 9.671875 -9.460938 9.671875 -9.921875 C 9.671875 -10.359375 9.539062 -10.734375 9.28125 -11.046875 C 9.019531 -11.367188 8.679688 -11.53125 8.265625 -11.53125 C 7.722656 -11.53125 7.226562 -11.347656 6.78125 -10.984375 C 6.332031 -10.617188 5.945312 -10.125 5.625 -9.5 L 5.625 0 L 1.4375 0 L 1.4375 -11.703125 L 5.625 -11.703125 L 5.625 -10.0625 C 5.988281 -10.675781 6.4375 -11.144531 6.96875 -11.46875 C 7.507812 -11.800781 8.160156 -11.96875 8.921875 -11.96875 Z M 8.921875 -11.96875 "/></g></g></g><g fill="#ffffff" fill-opacity="1"><g transform="translate(69.096516, 29.581908)"><g><path d="M 3.671875 -13.28125 C 3.054688 -13.28125 2.53125 -13.5 2.09375 -13.9375 C 1.65625 -14.382812 1.4375 -14.921875 1.4375 -15.546875 C 1.4375 -16.160156 1.65625 -16.6875 2.09375 -17.125 C 2.53125 -17.5625 3.054688 -17.78125 3.671875 -17.78125 C 4.304688 -17.78125 4.84375 -17.5625 5.28125 -17.125 C 5.71875 -16.6875 5.9375 -16.160156 5.9375 -15.546875 C 5.9375 -14.921875 5.71875 -14.382812 5.28125 -13.9375 C 4.84375 -13.5 4.304688 -13.28125 3.671875 -13.28125 Z M 1.578125 0 L 1.578125 -11.703125 L 5.765625 -11.671875 L 5.765625 0 Z M 1.578125 0 "/></g></g></g><g fill="#ffffff" fill-opacity="1"><g transform="translate(76.468235, 29.581908)"><g><path d="M 6.59375 0.28125 C 5.65625 0.28125 4.742188 0.132812 3.859375 -0.15625 C 2.984375 -0.457031 2.265625 -0.867188 1.703125 -1.390625 C 1.140625 -1.921875 0.859375 -2.53125 0.859375 -3.21875 C 0.859375 -3.820312 1.050781 -4.289062 1.4375 -4.625 C 1.832031 -4.96875 2.300781 -5.140625 2.84375 -5.140625 C 3.457031 -5.140625 4 -4.941406 4.46875 -4.546875 C 4.945312 -4.148438 5.1875 -3.707031 5.1875 -3.21875 C 4.59375 -3.21875 4.296875 -2.804688 4.296875 -1.984375 C 4.296875 -1.273438 4.53125 -0.765625 5 -0.453125 C 5.46875 -0.148438 5.953125 0 6.453125 0 C 6.742188 0 7.054688 -0.0390625 7.390625 -0.125 C 7.722656 -0.21875 8.007812 -0.378906 8.25 -0.609375 C 8.488281 -0.847656 8.609375 -1.195312 8.609375 -1.65625 C 8.609375 -2.132812 8.429688 -2.570312 8.078125 -2.96875 C 7.722656 -3.363281 7.265625 -3.734375 6.703125 -4.078125 C 6.140625 -4.421875 5.535156 -4.765625 4.890625 -5.109375 C 4.253906 -5.453125 3.648438 -5.804688 3.078125 -6.171875 C 2.515625 -6.546875 2.054688 -6.953125 1.703125 -7.390625 C 1.347656 -7.835938 1.171875 -8.335938 1.171875 -8.890625 C 1.171875 -9.640625 1.460938 -10.238281 2.046875 -10.6875 C 2.628906 -11.132812 3.359375 -11.457031 4.234375 -11.65625 C 5.117188 -11.863281 6.003906 -11.96875 6.890625 -11.96875 C 7.765625 -11.96875 8.570312 -11.84375 9.3125 -11.59375 C 10.0625 -11.34375 10.660156 -11.003906 11.109375 -10.578125 C 11.566406 -10.160156 11.796875 -9.675781 11.796875 -9.125 C 11.796875 -8.46875 11.582031 -8.003906 11.15625 -7.734375 C 10.738281 -7.472656 10.328125 -7.34375 9.921875 -7.34375 C 9.410156 -7.34375 8.960938 -7.5 8.578125 -7.8125 C 8.191406 -8.132812 8 -8.492188 8 -8.890625 C 8 -8.890625 8.070312 -8.910156 8.21875 -8.953125 C 8.363281 -9.003906 8.503906 -9.125 8.640625 -9.3125 C 8.785156 -9.507812 8.859375 -9.800781 8.859375 -10.1875 C 8.859375 -10.644531 8.671875 -11.003906 8.296875 -11.265625 C 7.929688 -11.535156 7.476562 -11.671875 6.9375 -11.671875 C 6.632812 -11.671875 6.3125 -11.613281 5.96875 -11.5 C 5.625 -11.382812 5.328125 -11.207031 5.078125 -10.96875 C 4.828125 -10.726562 4.703125 -10.398438 4.703125 -9.984375 C 4.703125 -9.546875 4.890625 -9.144531 5.265625 -8.78125 C 5.640625 -8.414062 6.125 -8.070312 6.71875 -7.75 C 7.3125 -7.425781 7.9375 -7.101562 8.59375 -6.78125 C 9.25 -6.46875 9.867188 -6.132812 10.453125 -5.78125 C 11.035156 -5.425781 11.515625 -5.039062 11.890625 -4.625 C 12.265625 -4.21875 12.453125 -3.75 12.453125 -3.21875 C 12.453125 -2.539062 12.160156 -1.9375 11.578125 -1.40625 C 10.992188 -0.882812 10.253906 -0.472656 9.359375 -0.171875 C 8.472656 0.128906 7.550781 0.28125 6.59375 0.28125 Z M 6.59375 0.28125 "/></g></g></g></svg>